<?xml version="1.0" standalone="no"?>
<!DOCTYPE svg PUBLIC "-//W3C//DTD SVG 20010904//EN"
 "http://www.w3.org/TR/2001/REC-SVG-20010904/DTD/svg10.dtd">
<svg version="1.0" xmlns="http://www.w3.org/2000/svg"
 width="1300.000000pt" height="349.000000pt" viewBox="0 0 1300.000000 349.000000"
 preserveAspectRatio="xMidYMid meet">

<g transform="translate(0.000000,349.000000) scale(0.100000,-0.100000)"
fill="#000000" stroke="none">
<path d="M530 3061 c0 -334 -1 -360 -17 -364 -17 -4 -17 -5 0 -6 16 -1 17 -26
17 -380 0 -353 -1 -380 -17 -384 -17 -4 -17 -5 0 -6 16 -1 17 -26 17 -385 0
-358 -1 -385 -17 -389 -17 -4 -17 -5 -1 -6 16 -1 18 -27 20 -363 l3 -363 282
-3 c257 -2 282 -4 286 -20 4 -16 5 -16 6 1 1 16 75 17 1415 17 1339 0 1415 -1
1419 -17 4 -17 5 -17 6 0 1 16 75 17 1415 17 1122 0 1416 -3 1420 -12 5 -10 7
-10 12 0 4 9 298 12 1419 12 1338 0 1414 -1 1418 -17 4 -17 5 -17 6 0 1 16 75
17 1415 17 1339 0 1415 -1 1419 -17 4 -17 5 -17 6 0 1 16 19 17 226 17 l225 0
-2 1502 -3 1503 -6197 3 -6198 2 0 -359z m12370 -1141 l0 -1470 -6165 0 -6165
0 0 1470 0 1470 6165 0 6165 0 0 -1470z"/>
<path d="M1100 3275 c0 -3 20 -45 44 -94 63 -124 143 -318 172 -414 14 -45 42
-167 64 -272 50 -244 124 -547 159 -651 35 -103 67 -158 137 -233 60 -65 122
-101 173 -101 18 0 61 -7 94 -16 l62 -17 120 42 c66 23 147 59 180 80 33 22
85 47 115 57 30 9 82 30 115 46 38 18 77 28 105 28 25 0 72 6 105 14 33 8 99
14 148 14 122 0 167 23 286 148 51 53 110 119 132 147 50 63 86 93 125 103 16
4 72 29 124 56 112 58 202 73 258 44 53 -28 169 -177 285 -367 79 -131 130
-194 182 -224 54 -31 170 -49 270 -41 57 4 94 1 129 -9 54 -16 60 -15 153 21
101 40 261 73 371 79 64 3 114 10 130 20 84 46 135 64 212 75 93 13 118 8 173
-34 18 -13 73 -42 123 -64 50 -22 128 -59 174 -82 45 -23 164 -70 264 -105 99
-34 201 -72 226 -83 64 -28 198 -59 310 -72 112 -14 275 -50 414 -91 54 -16
135 -33 180 -39 45 -5 95 -13 111 -19 17 -6 82 -20 145 -31 95 -18 132 -20
215 -14 133 10 400 7 472 -5 32 -5 77 -10 100 -10 23 0 72 -9 108 -20 37 -12
80 -21 96 -21 16 0 89 -13 162 -30 159 -35 338 -54 445 -47 106 7 246 32 315
58 56 21 63 21 255 10 108 -6 244 -11 302 -11 143 0 314 -16 423 -40 262 -57
323 -63 892 -81 187 -6 385 -17 440 -25 55 -7 125 -14 156 -14 69 0 94 -17
133 -92 52 -98 169 -288 177 -288 4 0 -27 60 -70 133 -43 72 -91 154 -105 180
-32 56 -78 88 -116 81 -14 -3 -62 0 -105 6 -124 18 -331 30 -695 40 -344 9
-459 21 -688 70 -140 30 -354 48 -677 55 -275 6 -292 5 -335 -13 -25 -11 -67
-23 -95 -27 -27 -3 -86 -13 -129 -22 -109 -21 -320 -5 -506 38 -47 11 -121 25
-164 30 -43 6 -95 17 -115 25 -72 31 -555 54 -678 33 -52 -9 -81 -8 -185 10
-68 12 -136 26 -153 32 -16 5 -66 14 -110 20 -44 5 -143 27 -220 48 -182 50
-324 81 -374 81 -23 0 -41 5 -41 11 0 6 -8 8 -19 4 -27 -8 -186 28 -262 61
-35 15 -140 53 -234 84 -165 56 -494 206 -579 264 -44 29 -78 32 -188 15 -76
-12 -99 -20 -168 -60 -39 -23 -60 -27 -160 -33 -120 -6 -234 -31 -365 -81 -54
-20 -79 -25 -110 -20 -22 4 -87 8 -145 9 -160 2 -234 14 -281 45 -50 34 -109
105 -161 195 -100 171 -237 353 -292 387 -58 35 -203 19 -276 -31 -42 -29
-108 -60 -128 -60 -26 0 -84 -47 -130 -106 -70 -89 -214 -234 -259 -261 -38
-22 -62 -27 -171 -34 -70 -4 -147 -13 -172 -18 -25 -6 -62 -10 -83 -11 -21 0
-59 -11 -86 -24 -26 -14 -78 -34 -115 -46 -36 -12 -90 -38 -119 -58 -51 -35
-210 -98 -275 -109 -18 -3 -53 0 -77 6 -25 6 -68 14 -97 17 -64 7 -100 28
-160 92 -65 69 -94 117 -128 210 -35 96 -125 457 -170 687 -18 87 -45 202 -60
255 -49 162 -230 561 -230 505z"/>
<path d="M6785 2760 c3 -5 8 -10 11 -10 2 0 4 5 4 10 0 6 -5 10 -11 10 -5 0
-7 -4 -4 -10z"/>
<path d="M6785 1110 c-3 -5 -1 -10 4 -10 6 0 11 5 11 10 0 6 -2 10 -4 10 -3 0
-8 -4 -11 -10z"/>
<path d="M254 2716 c-11 -29 0 -61 21 -61 15 0 21 8 23 29 2 16 0 32 -5 37 -5
5 -7 -6 -5 -26 3 -28 1 -35 -13 -35 -14 0 -16 7 -13 35 4 37 1 45 -8 21z"/>
<path d="M368 2723 c-2 -5 -1 -24 3 -43 l6 -35 2 43 c1 39 -3 52 -11 35z"/>
<path d="M421 2708 c1 -16 3 -18 6 -6 2 9 12 19 21 21 12 3 10 5 -5 6 -18 1
-23 -4 -22 -21z"/>
<path d="M435 2660 c-16 -7 -17 -9 -3 -9 9 -1 20 4 23 9 7 11 7 11 -20 0z"/>
<path d="M106 2318 c-12 -37 -3 -48 38 -47 l41 2 -35 6 c-22 4 -35 12 -35 21
0 9 13 17 35 21 l35 6 -38 2 c-22 0 -39 -4 -41 -11z"/>
<path d="M114 2246 c-9 -7 -15 -21 -13 -32 5 -25 64 -33 72 -10 14 37 -26 65
-59 42z m51 -26 c0 -18 -33 -26 -47 -12 -6 6 -7 15 -3 22 10 16 50 8 50 -10z"/>
<path d="M118 2163 c12 -2 32 -2 45 0 12 2 2 4 -23 4 -25 0 -35 -2 -22 -4z"/>
<path d="M93 2135 c-9 -10 -9 -14 0 -17 22 -7 80 7 85 20 3 11 1 11 -17 0 -16
-9 -25 -10 -39 -2 -13 8 -20 8 -29 -1z"/>
<path d="M106 2078 c-12 -37 -3 -48 38 -47 l41 2 -35 6 c-22 4 -35 12 -35 21
0 9 13 17 35 21 l35 6 -38 2 c-22 0 -39 -4 -41 -11z"/>
<path d="M104 1995 c-10 -26 4 -45 35 -45 30 0 45 19 35 45 -4 8 -11 15 -17
15 -8 0 -8 -3 0 -11 12 -12 7 -39 -8 -39 -5 0 -9 11 -9 25 0 28 -27 35 -36 10z
m26 -17 c0 -16 -3 -19 -11 -11 -6 6 -8 16 -5 22 11 17 16 13 16 -11z"/>
<path d="M254 1946 c-11 -29 0 -61 21 -61 15 0 21 8 23 29 2 16 0 32 -5 37 -5
5 -7 -6 -5 -26 3 -28 1 -35 -13 -35 -14 0 -16 7 -13 35 4 37 1 45 -8 21z"/>
<path d="M368 1953 c-2 -5 -1 -24 3 -43 l6 -35 2 43 c1 39 -3 52 -11 35z"/>
<path d="M445 1950 c3 -5 8 -10 11 -10 2 0 4 5 4 10 0 6 -5 10 -11 10 -5 0 -7
-4 -4 -10z"/>
<path d="M92 1924 c-7 -8 -8 -14 -2 -14 5 0 10 -7 10 -15 0 -8 -6 -15 -12 -15
-10 0 -10 -2 0 -9 18 -11 84 1 90 17 3 11 0 11 -16 1 -20 -13 -52 -7 -52 10 0
5 14 11 32 13 17 2 33 9 36 16 3 11 1 11 -17 0 -16 -9 -25 -10 -39 -2 -13 9
-20 8 -30 -2z"/>
<path d="M411 1928 c-2 -38 27 -65 43 -39 3 5 -2 8 -11 7 -10 0 -20 9 -24 24
-4 14 -7 18 -8 8z"/>
<path d="M107 1843 c-11 -10 -8 -41 5 -49 8 -5 9 -2 5 10 -4 10 -4 23 0 29 4
7 9 2 13 -13 9 -36 45 -34 46 3 1 24 -3 27 -31 27 -17 0 -35 -3 -38 -7z m58
-21 c0 -18 -20 -15 -23 4 -3 10 1 15 10 12 7 -3 13 -10 13 -16z"/>
<path d="M104 1703 c1 -23 6 -29 30 -31 30 -4 49 13 41 36 -2 6 0 12 4 12 15
0 20 -27 8 -39 -8 -8 -8 -11 0 -11 17 0 25 31 12 46 -6 8 -30 14 -54 14 -39 0
-42 -2 -41 -27z m54 -6 c2 -11 -3 -17 -17 -17 -23 0 -35 15 -26 31 10 15 39 6
43 -14z"/>
<path d="M100 1645 c0 -3 12 -11 28 -17 l27 -11 -27 -10 c-16 -6 -28 -15 -28
-19 0 -7 67 16 78 27 2 2 -13 11 -33 19 -41 18 -45 18 -45 11z"/>
<path d="M108 1562 c-21 -10 -37 -21 -35 -26 1 -4 25 -17 52 -27 51 -19 72
-19 36 1 -28 14 -27 44 2 58 38 19 -12 13 -55 -6z m22 -26 c0 -9 -7 -12 -21
-9 -16 4 -17 8 -7 14 19 13 28 11 28 -5z"/>
<path d="M254 1166 c-11 -29 0 -61 21 -61 15 0 21 8 23 29 2 16 0 32 -5 37 -5
5 -7 -6 -5 -26 3 -28 1 -35 -13 -35 -14 0 -16 7 -13 35 4 37 1 45 -8 21z"/>
<path d="M355 1169 c-4 -6 -5 -12 -2 -15 2 -3 7 2 10 11 7 17 1 20 -8 4z"/>
<path d="M421 1158 c1 -16 3 -18 6 -6 2 9 12 19 21 21 12 3 10 5 -5 6 -18 1
-23 -4 -22 -21z"/>
<path d="M392 1140 c0 -14 2 -19 5 -12 2 6 2 18 0 25 -3 6 -5 1 -5 -13z"/>
<path d="M353 1120 c2 -8 12 -16 23 -17 13 -2 15 -1 4 4 -8 3 -19 11 -23 17
-6 7 -7 6 -4 -4z"/>
<path d="M435 1110 c-16 -7 -17 -9 -3 -9 9 -1 20 4 23 9 7 11 7 11 -20 0z"/>
<path d="M1071 328 c1 -16 3 -18 6 -6 2 9 12 19 21 21 12 3 10 5 -5 6 -18 1
-23 -4 -22 -21z"/>
<path d="M1135 339 c-4 -6 -5 -12 -2 -15 2 -3 7 2 10 11 7 17 1 20 -8 4z"/>
<path d="M3910 339 c0 -5 5 -7 10 -4 6 3 10 8 10 11 0 2 -4 4 -10 4 -5 0 -10
-5 -10 -11z"/>
<path d="M3945 339 c3 -9 -3 -23 -15 -34 -27 -25 -25 -35 8 -34 24 2 25 2 4 6
l-24 5 23 24 c18 19 20 27 10 37 -10 9 -11 9 -6 -4z"/>
<path d="M3988 343 c6 -2 18 -2 25 0 6 3 1 5 -13 5 -14 0 -19 -2 -12 -5z"/>
<path d="M6795 340 c3 -5 8 -10 11 -10 2 0 4 5 4 10 0 6 -5 10 -11 10 -5 0 -7
-4 -4 -10z"/>
<path d="M9611 336 c0 -11 -11 -30 -23 -43 l-21 -23 29 1 c18 1 22 3 11 6 -17
4 -17 6 -2 23 9 10 15 27 12 37 -4 17 -5 16 -6 -1z"/>
<path d="M9658 343 c6 -2 18 -2 25 0 6 3 1 5 -13 5 -14 0 -19 -2 -12 -5z"/>
<path d="M12421 328 c1 -16 3 -18 6 -6 2 9 12 19 21 21 12 3 10 5 -5 6 -18 1
-23 -4 -22 -21z"/>
<path d="M12515 340 c3 -5 8 -10 11 -10 2 0 4 5 4 10 0 6 -5 10 -11 10 -5 0
-7 -4 -4 -10z"/>
<path d="M1172 310 c0 -14 2 -19 5 -12 2 6 2 18 0 25 -3 6 -5 1 -5 -13z"/>
<path d="M3970 320 c0 -5 5 -10 11 -10 5 0 7 5 4 10 -3 6 -8 10 -11 10 -2 0
-4 -4 -4 -10z"/>
<path d="M6761 318 c-2 -38 27 -65 43 -39 3 5 -2 8 -11 7 -10 0 -20 9 -24 24
-4 14 -7 18 -8 8z"/>
<path d="M9640 320 c0 -5 5 -10 11 -10 5 0 7 5 4 10 -3 6 -8 10 -11 10 -2 0
-4 -4 -4 -10z"/>
<path d="M12481 318 c-2 -38 27 -65 43 -39 3 5 -2 8 -11 7 -10 0 -20 9 -24 24
-4 14 -7 18 -8 8z"/>
<path d="M4008 298 c4 -18 2 -20 -18 -15 -16 4 -20 3 -12 -5 16 -16 42 -2 42
22 0 11 -4 20 -9 20 -5 0 -7 -10 -3 -22z"/>
<path d="M9678 298 c4 -18 2 -20 -18 -15 -16 4 -20 3 -12 -5 16 -16 42 -2 42
22 0 11 -4 20 -9 20 -5 0 -7 -10 -3 -22z"/>
<path d="M12456 307 c3 -10 9 -15 12 -12 3 3 0 11 -7 18 -10 9 -11 8 -5 -6z"/>
<path d="M1133 290 c2 -8 12 -16 23 -17 13 -2 15 -1 4 4 -8 3 -19 11 -23 17
-6 7 -7 6 -4 -4z"/>
<path d="M1085 280 c-16 -7 -17 -9 -3 -9 9 -1 20 4 23 9 7 11 7 11 -20 0z"/>
<path d="M12428 278 c5 -5 16 -8 23 -6 8 3 3 7 -10 11 -17 4 -21 3 -13 -5z"/>
<path d="M6352 193 c-4 -10 -5 -36 -1 -58 l6 -40 3 35 c2 19 3 41 3 48 -1 6 3
12 8 12 5 0 9 5 9 10 0 16 -19 11 -28 -7z"/>
<path d="M7500 191 c-15 -28 -12 -84 5 -107 13 -17 13 -16 3 13 -9 24 -9 43
-2 73 12 44 10 50 -6 21z"/>
<path d="M5730 150 c0 -50 0 -50 33 -50 40 0 57 15 57 50 0 35 -17 50 -57 50
-33 0 -33 0 -33 -50z m70 20 c14 -26 -3 -60 -30 -60 -17 0 -20 7 -20 40 0 33
3 40 20 40 10 0 24 -9 30 -20z"/>
<path d="M5948 190 c-2 -6 -2 -29 0 -50 l4 -38 49 1 c48 1 49 1 49 33 0 24 -5
34 -20 39 -22 7 -40 -1 -40 -17 0 -7 5 -6 14 1 10 8 16 9 21 1 3 -5 -5 -14
-19 -20 -14 -5 -26 -14 -26 -20 0 -5 -5 -10 -10 -10 -6 0 -10 17 -8 40 2 38
-6 63 -14 40z m82 -65 c0 -8 -7 -15 -15 -15 -26 0 -18 20 13 29 1 1 2 -6 2
-14z"/>
<path d="M6932 150 c0 -38 2 -47 7 -30 l7 25 12 -22 c7 -13 17 -23 23 -23 5 0
2 12 -8 27 -13 19 -14 28 -5 31 6 2 12 8 12 14 0 6 -9 3 -19 -6 -19 -17 -20
-17 -24 11 -2 15 -4 3 -5 -27z"/>
<path d="M7278 190 c-2 -6 -2 -29 0 -51 3 -28 9 -39 21 -39 12 0 13 2 3 9 -7
4 -12 23 -10 44 2 36 -6 59 -14 37z"/>
<path d="M7541 152 c-1 -52 -1 -53 27 -50 19 2 28 9 30 26 4 27 -16 55 -34 48
-7 -3 -15 3 -17 12 -3 9 -5 -7 -6 -36z m46 -26 c-4 -9 -11 -16 -17 -16 -15 0
-24 26 -16 47 6 15 8 15 23 1 9 -9 13 -24 10 -32z"/>
<path d="M7716 161 c4 -17 1 -45 -5 -63 -10 -30 -9 -31 4 -14 17 22 20 92 5
101 -6 4 -7 -5 -4 -24z"/>
<path d="M5843 140 c0 -25 2 -35 4 -22 2 12 2 32 0 45 -2 12 -4 2 -4 -23z"/>
<path d="M5877 173 c-15 -14 -6 -33 18 -39 14 -3 22 -10 19 -15 -3 -6 -15 -7
-27 -3 -17 5 -19 3 -11 -6 16 -16 48 -9 52 11 2 11 -6 19 -23 23 -14 4 -23 11
-19 17 3 6 13 8 21 5 8 -3 11 -1 8 4 -7 11 -28 13 -38 3z"/>
<path d="M6071 136 c2 -29 3 -33 6 -14 2 14 11 32 18 38 16 13 20 8 29 -40 2
-14 3 -7 3 15 -2 36 -5 40 -29 41 -26 1 -28 -1 -27 -40z"/>
<path d="M6162 171 c-8 -5 -12 -21 -10 -37 2 -23 8 -29 27 -29 13 0 27 7 29
15 4 13 3 13 -11 2 -19 -16 -37 -8 -37 18 0 22 23 32 41 17 11 -10 11 -9 0 6
-15 19 -20 20 -39 8z"/>
<path d="M6230 166 c-20 -26 -8 -61 23 -64 15 -2 27 1 27 6 0 6 -9 8 -20 5
-11 -3 -20 0 -20 6 0 6 9 11 19 11 26 0 36 17 21 35 -16 19 -34 19 -50 1z m35
-6 c3 -5 -1 -10 -10 -10 -9 0 -13 5 -10 10 3 6 8 10 10 10 2 0 7 -4 10 -10z"/>
<path d="M6403 173 c-8 -3 -12 -20 -12 -41 2 -34 2 -35 6 -7 3 16 10 33 16 37
14 9 6 17 -10 11z"/>
<path d="M6440 165 c-24 -29 8 -75 44 -62 30 12 14 77 -20 77 -6 0 -17 -7 -24
-15z m47 -39 c-10 -25 -37 -19 -37 7 0 13 3 27 7 31 11 11 36 -21 30 -38z"/>
<path d="M6533 173 c-8 -3 -12 -20 -12 -41 l2 -37 6 33 c3 18 11 33 16 33 6 0
13 -15 16 -33 6 -29 7 -30 8 -7 0 15 8 32 16 39 16 13 20 8 28 -40 3 -17 5
-14 6 13 0 20 -2 37 -6 38 -5 0 -21 2 -38 3 -16 2 -36 1 -42 -1z"/>
<path d="M6681 121 c1 -31 3 -48 6 -39 2 9 14 18 26 20 17 2 23 11 25 36 2 17
0 33 -5 33 -54 9 -53 9 -52 -50z m47 13 c-4 -23 -26 -30 -34 -10 -8 20 15 51
29 37 5 -5 7 -17 5 -27z"/>
<path d="M6770 166 c-20 -26 -8 -61 23 -64 15 -2 27 1 27 6 0 6 -9 8 -20 5
-11 -3 -20 0 -20 6 0 6 9 11 19 11 26 0 36 17 21 35 -16 19 -34 19 -50 1z m35
-6 c3 -5 -1 -10 -10 -10 -9 0 -13 5 -10 10 3 6 8 10 10 10 2 0 7 -4 10 -10z"/>
<path d="M6849 163 c-13 -17 -13 -17 4 -4 13 10 21 11 29 3 8 -8 4 -14 -16
-22 -35 -13 -29 -34 11 -38 30 -3 30 -2 24 35 -7 43 -30 54 -52 26z m34 -44
c-6 -6 -17 -8 -24 -3 -9 5 -8 9 7 14 23 9 31 3 17 -11z"/>
<path d="M7052 171 c-8 -5 -12 -21 -10 -37 2 -23 8 -29 27 -29 13 0 27 7 29
15 4 13 3 13 -11 2 -19 -16 -37 -8 -37 18 0 22 23 32 41 17 11 -10 11 -9 0 6
-15 19 -20 20 -39 8z"/>
<path d="M7120 166 c-20 -26 -8 -61 23 -64 15 -2 27 1 27 6 0 6 -9 8 -20 5
-11 -3 -20 0 -20 6 0 6 9 11 19 11 26 0 36 17 21 35 -16 19 -34 19 -50 1z m35
-6 c3 -5 -1 -10 -10 -10 -9 0 -13 5 -10 10 3 6 8 10 10 10 2 0 7 -4 10 -10z"/>
<path d="M7208 173 c-13 -3 -18 -14 -18 -39 0 -43 18 -45 22 -1 4 41 21 38 30
-5 6 -32 6 -32 5 6 -2 40 -9 47 -39 39z"/>
<path d="M7318 155 c-8 -19 -8 -28 2 -40 15 -18 46 -20 56 -4 4 7 0 9 -14 5
-11 -4 -23 -2 -27 4 -4 6 4 10 19 10 28 0 34 18 14 38 -19 19 -37 14 -50 -13z
m52 -1 c0 -2 -9 -4 -21 -4 -11 0 -18 4 -14 10 5 8 35 3 35 -6z"/>
<path d="M7413 173 c-8 -3 -12 -20 -12 -41 2 -34 2 -35 6 -7 3 16 10 33 16 37
14 9 6 17 -10 11z"/>
<path d="M7633 173 c-8 -3 -13 -23 -12 -56 1 -29 3 -44 6 -35 2 9 14 18 26 20
25 3 35 41 17 64 -13 15 -17 16 -37 7z m34 -47 c-4 -9 -11 -16 -17 -16 -15 0
-24 26 -16 47 6 15 8 15 23 1 9 -9 13 -24 10 -32z"/>
</g>
</svg>
