<?xml version="1.0" standalone="no"?>
<!DOCTYPE svg PUBLIC "-//W3C//DTD SVG 20010904//EN"
 "http://www.w3.org/TR/2001/REC-SVG-20010904/DTD/svg10.dtd">
<svg version="1.0" xmlns="http://www.w3.org/2000/svg"
 width="1300.000000pt" height="349.000000pt" viewBox="0 0 1300.000000 349.000000"
 preserveAspectRatio="xMidYMid meet">

<g transform="translate(0.000000,349.000000) scale(0.100000,-0.100000)"
fill="#000000" stroke="none">
<path d="M470 2946 c0 -444 -1 -475 -17 -479 -17 -4 -17 -5 0 -6 16 -1 17 -32
17 -510 0 -477 -1 -510 -17 -514 -17 -4 -17 -5 -1 -6 17 -1 18 -34 20 -509 l3
-507 275 -3 c203 -2 276 -6 283 -15 7 -9 10 -9 14 1 4 9 298 12 1423 12 1125
0 1420 -3 1424 -12 5 -11 7 -11 12 0 4 9 299 12 1424 12 1343 0 1419 -1 1423
-17 4 -17 5 -17 6 0 1 16 76 17 1425 17 1348 0 1425 -1 1429 -17 4 -17 5 -17
6 0 1 16 76 17 1425 17 1348 0 1425 -1 1429 -18 4 -16 5 -16 6 1 1 16 19 17
226 17 l225 0 -2 1503 -3 1502 -6227 3 -6228 2 0 -474z m12430 -1026 l0 -1470
-6200 0 -6200 0 0 1470 0 1470 6200 0 6200 0 0 -1470z"/>
<path d="M1075 3253 c-19 -20 -35 -41 -35 -47 0 -6 16 6 35 27 18 20 42 37 53
37 36 0 83 -117 141 -345 31 -122 126 -638 161 -873 52 -346 101 -550 164
-688 36 -77 53 -93 130 -118 67 -23 132 -9 271 56 142 68 188 70 291 16 207
-109 233 -120 293 -125 112 -10 236 39 401 161 58 42 115 79 127 82 35 9 183
-25 247 -57 69 -34 112 -36 165 -10 44 23 72 53 161 176 90 124 178 215 206
215 34 0 87 -75 196 -275 151 -277 158 -285 250 -285 51 0 75 7 162 49 141 68
174 81 211 81 37 0 170 -31 264 -62 121 -39 186 -17 318 106 104 97 172 141
208 132 26 -7 119 -111 171 -192 58 -91 153 -203 186 -220 66 -34 220 -15 284
35 13 10 53 27 89 36 64 18 66 18 131 -4 36 -12 86 -35 110 -52 137 -94 227
-104 398 -45 157 55 202 44 361 -91 164 -138 245 -157 454 -104 166 42 198 40
355 -14 177 -61 214 -67 359 -54 199 17 264 13 395 -20 249 -64 321 -63 551
11 160 51 233 53 366 12 79 -25 106 -28 220 -29 109 0 149 5 250 28 135 32
182 32 340 -5 139 -32 229 -28 423 21 90 23 185 41 212 41 43 0 110 -15 280
-64 139 -40 241 -31 451 38 186 60 211 66 242 49 14 -7 46 -48 72 -90 61 -103
165 -251 165 -235 0 7 -29 54 -64 105 -35 50 -80 120 -100 153 -19 34 -47 69
-62 79 -24 15 -33 16 -83 5 -31 -7 -117 -33 -191 -58 -134 -47 -136 -47 -265
-46 -121 0 -139 3 -249 37 -160 50 -210 49 -425 -4 -192 -47 -262 -49 -436
-10 -119 27 -224 24 -350 -9 -44 -11 -121 -23 -170 -27 -82 -5 -104 -2 -240
32 -180 45 -228 44 -385 -8 -209 -70 -313 -73 -530 -17 -139 37 -198 40 -440
27 -159 -9 -166 -8 -362 62 -116 41 -192 41 -348 1 -63 -17 -129 -30 -146 -30
-60 0 -161 39 -215 83 -150 121 -188 148 -228 162 -63 21 -108 19 -192 -11
-41 -14 -86 -27 -101 -28 -16 0 -28 -4 -28 -8 0 -5 -25 -8 -55 -8 -63 0 -149
31 -218 79 -125 85 -218 91 -352 20 -68 -36 -91 -43 -156 -47 -57 -3 -83 0
-107 12 -34 17 -108 106 -189 226 -76 111 -153 190 -186 190 -46 0 -104 -37
-200 -126 -50 -47 -108 -94 -130 -105 -53 -28 -123 -22 -305 25 -169 43 -167
43 -342 -42 -87 -42 -129 -57 -172 -60 -55 -4 -59 -3 -91 29 -18 19 -60 84
-93 144 -34 61 -77 139 -97 175 -92 166 -143 224 -188 213 -26 -7 -124 -116
-218 -243 -83 -113 -151 -170 -203 -170 -16 0 -49 11 -72 25 -51 30 -182 65
-241 65 -45 0 -89 -25 -199 -112 -63 -50 -174 -104 -255 -124 -83 -21 -154 -9
-250 43 -232 124 -210 115 -281 110 -53 -3 -86 -14 -175 -58 -101 -49 -116
-54 -180 -54 -89 0 -140 24 -172 80 -60 108 -126 367 -174 688 -38 250 -130
758 -163 892 -61 249 -115 375 -161 375 -8 0 -30 -16 -50 -37z"/>
<path d="M254 2486 c-11 -29 0 -61 21 -61 15 0 21 8 23 29 2 16 0 32 -5 37 -5
5 -7 -6 -5 -26 3 -28 1 -35 -13 -35 -14 0 -16 7 -13 35 4 37 1 45 -8 21z"/>
<path d="M350 2489 c0 -5 5 -7 10 -4 6 3 10 8 10 11 0 2 -4 4 -10 4 -5 0 -10
-5 -10 -11z"/>
<path d="M385 2489 c3 -9 -3 -23 -15 -34 -27 -25 -25 -35 8 -34 24 2 25 2 4 6
l-24 5 23 24 c18 19 20 27 10 37 -10 9 -11 9 -6 -4z"/>
<path d="M106 2318 c-12 -37 -3 -48 38 -47 l41 2 -35 6 c-22 4 -35 12 -35 21
0 9 13 17 35 21 l35 6 -38 2 c-22 0 -39 -4 -41 -11z"/>
<path d="M114 2246 c-9 -7 -15 -21 -13 -32 5 -25 64 -33 72 -10 14 37 -26 65
-59 42z m51 -26 c0 -18 -33 -26 -47 -12 -6 6 -7 15 -3 22 10 16 50 8 50 -10z"/>
<path d="M118 2163 c12 -2 32 -2 45 0 12 2 2 4 -23 4 -25 0 -35 -2 -22 -4z"/>
<path d="M93 2135 c-9 -10 -9 -14 0 -17 22 -7 80 7 85 20 3 11 1 11 -17 0 -16
-9 -25 -10 -39 -2 -13 8 -20 8 -29 -1z"/>
<path d="M106 2078 c-12 -37 -3 -48 38 -47 l41 2 -35 6 c-22 4 -35 12 -35 21
0 9 13 17 35 21 l35 6 -38 2 c-22 0 -39 -4 -41 -11z"/>
<path d="M104 1995 c-10 -26 4 -45 35 -45 30 0 45 19 35 45 -4 8 -11 15 -17
15 -8 0 -8 -3 0 -11 12 -12 7 -39 -8 -39 -5 0 -9 11 -9 25 0 28 -27 35 -36 10z
m26 -17 c0 -16 -3 -19 -11 -11 -6 6 -8 16 -5 22 11 17 16 13 16 -11z"/>
<path d="M92 1924 c-7 -8 -8 -14 -2 -14 5 0 10 -7 10 -15 0 -8 -6 -15 -12 -15
-10 0 -10 -2 0 -9 18 -11 84 1 90 17 3 11 0 11 -16 1 -20 -13 -52 -7 -52 10 0
5 14 11 32 13 17 2 33 9 36 16 3 11 1 11 -17 0 -16 -9 -25 -10 -39 -2 -13 9
-20 8 -30 -2z"/>
<path d="M107 1843 c-11 -10 -8 -41 5 -49 8 -5 9 -2 5 10 -4 10 -4 23 0 29 4
7 9 2 13 -13 9 -36 45 -34 46 3 1 24 -3 27 -31 27 -17 0 -35 -3 -38 -7z m58
-21 c0 -18 -20 -15 -23 4 -3 10 1 15 10 12 7 -3 13 -10 13 -16z"/>
<path d="M104 1703 c1 -23 6 -29 30 -31 30 -4 49 13 41 36 -2 6 0 12 4 12 15
0 20 -27 8 -39 -8 -8 -8 -11 0 -11 17 0 25 31 12 46 -6 8 -30 14 -54 14 -39 0
-42 -2 -41 -27z m54 -6 c2 -11 -3 -17 -17 -17 -23 0 -35 15 -26 31 10 15 39 6
43 -14z"/>
<path d="M100 1645 c0 -3 12 -11 28 -17 l27 -11 -27 -10 c-16 -6 -28 -15 -28
-19 0 -7 67 16 78 27 2 2 -13 11 -33 19 -41 18 -45 18 -45 11z"/>
<path d="M108 1562 c-21 -10 -37 -21 -35 -26 1 -4 25 -17 52 -27 51 -19 72
-19 36 1 -28 14 -27 44 2 58 38 19 -12 13 -55 -6z m22 -26 c0 -9 -7 -12 -21
-9 -16 4 -17 8 -7 14 19 13 28 11 28 -5z"/>
<path d="M254 1456 c-11 -29 0 -61 21 -61 15 0 21 8 23 29 2 16 0 32 -5 37 -5
5 -7 -6 -5 -26 3 -28 1 -35 -13 -35 -14 0 -16 7 -13 35 4 37 1 45 -8 21z"/>
<path d="M368 1463 c-2 -5 -1 -24 3 -43 l6 -35 2 43 c1 39 -3 52 -11 35z"/>
<path d="M1018 343 c6 -2 18 -2 25 0 6 3 1 5 -13 5 -14 0 -19 -2 -12 -5z"/>
<path d="M1095 340 c3 -5 8 -10 11 -10 2 0 4 5 4 10 0 6 -5 10 -11 10 -5 0 -7
-4 -4 -10z"/>
<path d="M3895 337 c3 -7 -3 -22 -15 -32 -27 -25 -25 -35 8 -34 25 1 25 1 4 7
l-23 7 21 17 c22 19 25 33 10 43 -5 3 -7 0 -5 -8z"/>
<path d="M3931 328 c1 -16 3 -18 6 -6 2 9 12 19 21 21 12 3 10 5 -5 6 -18 1
-23 -4 -22 -21z"/>
<path d="M6734 336 c-11 -29 0 -61 21 -61 15 0 21 8 23 29 2 16 0 32 -5 37 -5
5 -7 -6 -5 -26 3 -28 1 -35 -13 -35 -14 0 -16 7 -13 35 4 37 1 45 -8 21z"/>
<path d="M9560 339 c0 -5 5 -7 10 -4 6 3 10 8 10 11 0 2 -4 4 -10 4 -5 0 -10
-5 -10 -11z"/>
<path d="M9595 339 c3 -9 -3 -23 -15 -34 -27 -25 -25 -35 8 -34 24 2 25 2 4 6
l-24 5 23 24 c18 19 20 27 10 37 -10 9 -11 9 -6 -4z"/>
<path d="M9638 343 c6 -2 18 -2 25 0 6 3 1 5 -13 5 -14 0 -19 -2 -12 -5z"/>
<path d="M12421 328 c1 -16 3 -18 6 -6 2 9 12 19 21 21 12 3 10 5 -5 6 -18 1
-23 -4 -22 -21z"/>
<path d="M12484 336 c-11 -29 0 -61 21 -61 15 0 21 8 23 29 2 16 0 32 -5 37
-5 5 -7 -6 -5 -26 3 -28 1 -35 -13 -35 -14 0 -16 7 -13 35 4 37 1 45 -8 21z"/>
<path d="M1000 320 c0 -5 5 -10 11 -10 5 0 7 5 4 10 -3 6 -8 10 -11 10 -2 0
-4 -4 -4 -10z"/>
<path d="M1061 318 c-2 -38 27 -65 43 -39 3 5 -2 8 -11 7 -10 0 -20 9 -24 24
-4 14 -7 18 -8 8z"/>
<path d="M9620 320 c0 -5 5 -10 11 -10 5 0 7 5 4 10 -3 6 -8 10 -11 10 -2 0
-4 -4 -4 -10z"/>
<path d="M1038 298 c4 -18 2 -20 -18 -15 -16 4 -20 3 -12 -5 16 -16 42 -2 42
22 0 11 -4 20 -9 20 -5 0 -7 -10 -3 -22z"/>
<path d="M9658 298 c4 -18 2 -20 -18 -15 -16 4 -20 3 -12 -5 16 -16 42 -2 42
22 0 11 -4 20 -9 20 -5 0 -7 -10 -3 -22z"/>
<path d="M12456 307 c3 -10 9 -15 12 -12 3 3 0 11 -7 18 -10 9 -11 8 -5 -6z"/>
<path d="M3945 280 c-16 -7 -17 -9 -3 -9 9 -1 20 4 23 9 7 11 7 11 -20 0z"/>
<path d="M12428 278 c5 -5 16 -8 23 -6 8 3 3 7 -10 11 -17 4 -21 3 -13 -5z"/>
<path d="M6321 193 c-5 -10 -5 -36 -1 -58 l8 -40 2 38 c3 47 4 49 13 65 5 7 4
12 -2 12 -6 0 -14 -8 -20 -17z"/>
<path d="M5700 150 c0 -50 0 -50 33 -50 40 0 57 15 57 50 0 35 -17 50 -57 50
-33 0 -33 0 -33 -50z m70 20 c14 -26 -3 -60 -30 -60 -17 0 -20 7 -20 40 0 33
3 40 20 40 10 0 24 -9 30 -20z"/>
<path d="M5918 188 c-6 -17 2 -88 11 -88 7 0 6 89 -2 96 -2 3 -7 -1 -9 -8z"/>
<path d="M6890 150 c0 -27 5 -50 10 -50 6 0 10 9 10 21 0 21 0 21 20 -2 10
-13 19 -19 20 -14 0 6 -6 17 -12 23 -10 10 -10 17 1 35 14 22 14 22 -8 3 -21
-19 -21 -19 -21 7 0 15 -4 27 -10 27 -5 0 -10 -22 -10 -50z"/>
<path d="M7248 188 c-6 -17 2 -88 11 -88 7 0 6 89 -2 96 -2 3 -7 -1 -9 -8z"/>
<path d="M7460 166 c-8 -26 -8 -41 2 -66 13 -30 13 -29 13 34 0 36 -1 66 -2
66 -1 0 -6 -15 -13 -34z"/>
<path d="M7500 149 c0 -49 1 -50 26 -47 49 6 59 62 13 76 -11 4 -12 2 -1 -9
18 -19 15 -59 -4 -59 -11 0 -15 8 -14 28 3 45 1 62 -10 62 -5 0 -10 -23 -10
-51z"/>
<path d="M7680 173 c5 -20 5 -46 -1 -65 -12 -44 -11 -48 6 -18 19 33 19 71 0
96 -13 17 -14 16 -5 -13z"/>
<path d="M5813 140 c0 -25 2 -35 4 -22 2 12 2 32 0 45 -2 12 -4 2 -4 -23z"/>
<path d="M5847 173 c-13 -13 -7 -32 13 -38 27 -9 26 -29 -1 -22 -15 4 -19 3
-12 -4 14 -14 45 -8 50 8 3 7 -7 18 -21 24 -27 13 -26 32 1 22 11 -4 14 -3 9
5 -8 13 -29 16 -39 5z"/>
<path d="M5959 163 c-13 -17 -13 -17 4 -4 13 10 21 11 29 3 8 -8 4 -14 -16
-22 -35 -13 -29 -34 11 -38 30 -3 30 -2 24 35 -7 43 -30 54 -52 26z m34 -44
c-6 -6 -17 -8 -24 -3 -9 5 -8 9 7 14 23 9 31 3 17 -11z"/>
<path d="M6053 173 c-8 -3 -12 -20 -11 -41 1 -36 1 -36 5 -5 5 41 31 52 39 15
10 -45 12 -48 13 -16 1 16 -4 35 -11 42 -13 13 -16 13 -35 5z"/>
<path d="M6126 165 c-19 -19 -20 -37 -4 -53 14 -14 48 -16 48 -3 0 5 -9 7 -20
4 -16 -4 -20 0 -20 19 0 32 10 41 28 25 12 -10 14 -9 11 2 -8 22 -25 24 -43 6z"/>
<path d="M6202 171 c-20 -12 -11 -65 12 -69 10 -2 23 2 30 8 8 9 6 11 -11 6
-12 -4 -24 -2 -28 4 -4 6 4 10 19 10 19 0 26 5 26 19 0 10 -7 22 -16 25 -19 7
-16 7 -32 -3z m33 -11 c3 -6 -4 -10 -17 -10 -18 0 -20 2 -8 10 19 12 18 12 25
0z"/>
<path d="M6363 173 c-15 -6 -18 -73 -3 -73 6 0 10 14 10 30 0 17 5 30 10 30 6
0 10 5 10 10 0 11 -7 12 -27 3z"/>
<path d="M6411 166 c-21 -25 -10 -61 18 -61 31 0 50 28 35 53 -15 23 -38 26
-53 8z m42 -42 c-3 -8 -11 -14 -18 -14 -19 0 -27 30 -13 47 10 13 14 13 24 -2
7 -9 10 -23 7 -31z"/>
<path d="M6498 172 c-13 -2 -18 -13 -18 -38 0 -43 18 -45 22 -1 4 41 21 38 29
-5 l6 -33 2 33 c1 43 31 45 31 2 0 -16 5 -30 10 -30 14 0 12 57 -2 67 -14 9
-54 11 -80 5z"/>
<path d="M6663 173 c-8 -3 -13 -23 -12 -56 1 -29 3 -44 6 -35 2 9 14 18 26 20
25 3 35 41 17 64 -13 15 -17 16 -37 7z m34 -47 c-4 -9 -11 -16 -17 -16 -15 0
-24 26 -16 47 6 15 8 15 23 1 9 -9 13 -24 10 -32z"/>
<path d="M6742 171 c-20 -12 -11 -65 12 -69 10 -2 23 2 30 8 8 9 6 11 -11 6
-12 -4 -24 -2 -28 4 -4 6 4 10 19 10 19 0 26 5 26 19 0 10 -7 22 -16 25 -19 7
-16 7 -32 -3z m33 -11 c3 -6 -4 -10 -17 -10 -18 0 -20 2 -8 10 19 12 18 12 25
0z"/>
<path d="M6823 173 c-7 -2 -13 -9 -13 -15 0 -6 6 -5 15 2 12 10 19 10 27 2 8
-8 4 -13 -16 -18 -17 -4 -26 -13 -26 -25 0 -15 6 -19 30 -17 29 2 31 5 28 38
-3 34 -17 45 -45 33z m37 -43 c0 -13 -28 -25 -38 -16 -3 4 0 11 8 16 20 13 30
12 30 0z"/>
<path d="M7016 165 c-19 -19 -20 -37 -4 -53 14 -14 48 -16 48 -3 0 5 -9 7 -20
4 -16 -4 -20 0 -20 19 0 32 10 41 28 25 12 -10 14 -9 11 2 -8 22 -25 24 -43 6z"/>
<path d="M7092 171 c-20 -12 -11 -65 12 -69 10 -2 23 2 30 8 8 9 6 11 -11 6
-12 -4 -24 -2 -28 4 -4 6 4 10 19 10 19 0 26 5 26 19 0 10 -7 22 -16 25 -19 7
-16 7 -32 -3z m33 -11 c3 -6 -4 -10 -17 -10 -18 0 -20 2 -8 10 19 12 18 12 25
0z"/>
<path d="M7161 136 c2 -29 3 -33 6 -14 2 14 11 32 18 38 16 13 20 8 29 -40 2
-14 3 -7 3 15 -2 36 -5 40 -29 41 -26 1 -28 -1 -27 -40z"/>
<path d="M7290 166 c-20 -26 -8 -61 23 -64 15 -2 27 1 27 6 0 6 -9 8 -20 5
-11 -3 -20 0 -20 6 0 6 9 11 19 11 26 0 36 17 21 35 -16 19 -34 19 -50 1z m35
-6 c3 -5 -1 -10 -10 -10 -9 0 -13 5 -10 10 3 6 8 10 10 10 2 0 7 -4 10 -10z"/>
<path d="M7383 173 c-8 -3 -12 -20 -12 -41 2 -34 2 -35 6 -7 3 16 10 33 16 37
14 9 6 17 -10 11z"/>
<path d="M7603 173 c-8 -3 -13 -23 -12 -56 1 -29 3 -44 6 -35 2 9 14 18 26 20
25 3 35 41 17 64 -13 15 -17 16 -37 7z m34 -47 c-4 -9 -11 -16 -17 -16 -15 0
-24 26 -16 47 6 15 8 15 23 1 9 -9 13 -24 10 -32z"/>
</g>
</svg>
